Coordinates
version=1
nRows=14
nColumns=24
inDegrees=yes

Units are S.I. units (second, meters, Newtons, ...)
Angles are in degrees.

endheader
time	pelvis_tilt	pelvis_list	pelvis_rotation	pelvis_tx	pelvis_ty	pelvis_tz	hip_flexion_r	hip_adduction_r	hip_rotation_r	knee_angle_r	ankle_angle_r	subtalar_angle_r	mtp_angle_r	hip_flexion_l	hip_adduction_l	hip_rotation_l	knee_angle_l	ankle_angle_l	subtalar_angle_l	mtp_angle_l	lumbar_extension	lumbar_bending	lumbar_rotation
      0.94250000	     -2.00735131	     -7.00813200	     -3.38909904	     -0.21689085	      0.99734672	      0.32323775	     -7.83535952	      7.98675212	     -4.45244329	    -11.69206479	      7.65315477	     -7.63634539	     -0.72087340	     23.74814975	     -8.35934296	    -10.45695657	      1.71941964	      1.04905338	     -7.64867593	     -4.35453181	    -10.25019589	      8.32535724	      5.16365243
      0.94666667	     -1.90761707	     -6.97503296	     -3.49720311	     -0.21087864	      0.99692502	      0.32331472	     -8.14912773	      7.87434542	     -4.32448377	    -12.03684014	      7.73458526	     -7.54408934	     -0.64355409	     23.64568350	     -8.36439030	    -10.22554518	      1.47711491	      1.05025637	     -7.69786149	     -4.29609847	    -10.34179105	      8.19011938	      5.24450604
      0.95083333	     -1.71731069	     -6.88056690	     -3.64669548	     -0.20479665	      0.99674274	      0.32343200	     -8.53550300	      7.66867956	     -4.22776336	    -12.42270117	      7.74503366	     -7.36586442	     -0.49488113	     23.39947660	     -8.31673223	    -10.05616237	      1.22687935	      0.94270121	     -7.84764097	     -4.18765902	    -10.53991865	      7.97030213	      5.44066476
      0.95500000	     -1.59306365	     -6.82460060	     -3.78979586	     -0.19875842	      0.99646260	      0.32363064	     -8.84260789	      7.52484915	     -4.06198010	    -12.82449868	      7.77145562	     -7.28751111	     -0.40663666	     23.27172989	     -8.32061610	     -9.86490124	      0.81711511	      0.92455734	     -7.97575870	     -4.12454109	    -10.65900227	      7.78643725	      5.53345648
      0.95916667	     -1.37842615	     -6.70214484	     -3.96835257	     -0.19263744	      0.99642610	      0.32385375	     -9.22501320	      7.28262106	     -3.92705604	    -13.25544814	      7.70921725	     -7.13997442	     -0.22270352	     22.99621986	     -8.25927099	     -9.75277486	      0.43129504	      0.71455584	     -8.21266505	     -3.99690019	    -10.87998862	      7.50972768	      5.78834151
      0.96333333	     -1.20467441	     -6.59619098	     -4.15145348	     -0.18654328	      0.99635091	      0.32411658	     -9.54091683	      7.06444935	     -3.75407035	    -13.72812988	      7.64749984	     -7.03860093	     -0.02129913	     22.78618680	     -8.22253074	     -9.64219072	     -0.04955929	      0.53976966	     -8.44325538	     -3.86028401	    -11.05873021	      7.25628954	      5.96848175
      0.96750000	     -1.04486207	     -6.48526305	     -4.33799842	     -0.18043326	      0.99629436	      0.32438833	     -9.81582064	      6.83826270	     -3.59104336	    -14.24400627	      7.54817566	     -6.94936091	      0.19396830	     22.59115117	     -8.18077557	     -9.54185446	     -0.57601025	      0.32923041	     -8.71322570	     -3.72031487	    -11.20914817	      6.98612351	      6.16554157
      0.97166667	     -0.91684834	     -6.38732408	     -4.52168516	     -0.17435483	      0.99621389	      0.32464719	    -10.02708031	      6.62817813	     -3.41650300	    -14.80998587	      7.42869662	     -6.87043302	      0.34132496	     22.44768741	     -8.15142313	     -9.43562255	     -1.17149225	      0.14654674	     -9.00645135	     -3.62936362	    -11.33018748	      6.74280241	      6.29589409
      0.97583333	     -0.79861687	     -6.26068579	     -4.71446023	     -0.16822734	      0.99618406	      0.32490740	    -10.19719549	      6.38004769	     -3.26817550	    -15.42250507	      7.24273953	     -6.78304583	      0.50208085	     22.29308731	     -8.09125410	     -9.36786971	     -1.75074176	     -0.18707045	     -9.34715207	     -3.53789000	    -11.43184373	      6.46150191	      6.48948169
      0.98000000	     -0.58521582	     -6.13688568	     -4.93472736	     -0.16210318	      0.99637067	      0.32526550	    -10.44706272	      6.12371548	     -3.08487825	    -16.05418358	      6.93632065	     -6.82901722	      5.62110560	     22.01948888	     -8.04870108	     -9.43071297	     -2.33347617	     -0.56182420	     -9.58995266	     -0.56964153	    -11.64903835	      6.15344997	      6.82249214
      0.98416667	     -0.50968536	     -6.01056013	     -5.10288572	     -0.15599561	      0.99632640	      0.32542051	    -10.49352078	      5.87144895	     -2.99260757	    -16.80070838	      6.71633953	     -6.71650942	      5.64358022	     21.91792899	     -7.97201902	     -9.34922608	     -2.95159865	     -0.93537280	    -10.00619367	     -0.55597705	    -11.69109166	      5.88520980	      6.88779799
      0.98833333	     -0.42063756	     -5.88512233	     -5.26084429	     -0.14989373	      0.99635521	      0.32555362	    -10.52461860	      5.61883958	     -2.91179895	    -17.58470626	      6.41424984	     -6.62831103	      5.68615270	     21.79998742	     -7.89137713	     -9.29918140	     -3.57414014	     -1.36267241	    -10.42388531	     -0.54001669	    -11.75207869	      5.61576084	      7.03140029
      0.99250000	     -0.32964062	     -5.75227270	     -5.42055991	     -0.14380653	      0.99642349	      0.32566910	    -10.51147092	      5.35378038	     -2.84443730	    -18.44613154	      6.08656408	     -6.55474169	      5.75575789	     21.66769340	     -7.80068896	     -9.26272616	     -4.18111292	     -1.81265720	    -10.84135245	     -0.51859211	    -11.81678740	      5.33369105	      7.18931168
      0.99666667	     -0.24363935	     -5.61722006	     -5.56965230	     -0.13773215	      0.99652132	      0.32575574	    -10.45355799	      5.08560437	     -2.79262019	    -19.36540846	      5.69533077	     -6.48364789	      5.84029972	     21.54534849	     -7.70510508	     -9.26886510	     -4.79998287	     -2.26475315	    -11.23688496	     -0.49692810	    -11.87538820	      5.05263507	      7.31930569
